<?xml version="1.0" standalone="no"?>
<!DOCTYPE svg PUBLIC "-//W3C//DTD SVG 20010904//EN"
 "http://www.w3.org/TR/2001/REC-SVG-20010904/DTD/svg10.dtd">
<svg version="1.0" xmlns="http://www.w3.org/2000/svg"
 width="1638.000000pt" height="948.000000pt" viewBox="0 0 1638.000000 948.000000"
 preserveAspectRatio="xMidYMid meet">

<g transform="translate(0.000000,948.000000) scale(0.100000,-0.100000)"
fill="#000000" stroke="none">
<path d="M9141 9092 l-705 -385 -29 16 c-39 23 -139 23 -175 0 -43 -26 -82
-65 -108 -105 -34 -53 -34 -144 1 -196 38 -57 47 -67 92 -95 95 -60 227 -22
292 83 22 36 31 63 33 107 l3 58 300 163 c165 90 399 218 520 284 121 66 236
129 255 138 19 10 81 44 138 75 l102 56 0 95 c0 52 -3 94 -7 93 -5 0 -325
-174 -712 -387z m-761 -467 c16 -9 36 -29 45 -45 31 -60 10 -137 -45 -165
-110 -57 -222 55 -165 165 29 55 105 76 165 45z"/>
<path d="M9670 9003 c-90 -59 -130 -122 -130 -203 0 -68 21 -111 84 -170 l36
-34 0 -4233 0 -4233 100 0 100 0 0 4235 0 4234 31 23 c16 12 43 44 60 70 24
40 29 59 29 109 0 79 -39 142 -122 195 -46 30 -148 33 -188 7z m150 -98 c16
-9 36 -29 45 -45 31 -60 10 -137 -45 -165 -110 -57 -222 55 -165 165 29 55
105 76 165 45z"/>
<path d="M8240 6896 c0 -960 -3 -1217 -12 -1225 -115 -92 -138 -128 -138 -211
0 -47 5 -68 25 -98 38 -57 47 -67 92 -95 95 -60 227 -22 292 84 26 41 31 60
31 109 0 69 -23 114 -84 168 l-36 31 -2 1223 -3 1223 -82 3 -83 3 0 -1215z
m130 -1331 c16 -9 36 -29 45 -45 31 -60 10 -137 -45 -165 -110 -57 -222 55
-165 165 29 55 105 76 165 45z"/>
<path d="M6440 7743 c-72 -47 -130 -123 -130 -170 0 -26 -12 -34 -133 -99 -72
-40 -814 -444 -1647 -899 -833 -455 -1719 -938 -1967 -1074 -249 -135 -453
-252 -453 -259 0 -18 61 -123 75 -128 6 -3 344 177 751 399 406 222 1344 734
2083 1137 l1344 734 36 -21 36 -21 5 -1213 5 -1214 85 0 85 0 3 1212 2 1211
34 22 c19 11 49 43 65 71 26 41 31 60 31 110 0 79 -39 142 -122 195 -46 30
-148 33 -188 7z m150 -98 c16 -9 36 -29 45 -45 31 -60 10 -137 -45 -165 -110
-57 -222 55 -165 165 29 55 105 76 165 45z"/>
<path d="M4188 4831 l-808 -406 0 -1442 c0 -878 4 -1443 9 -1443 5 0 112 33
238 74 331 107 778 252 1088 351 149 48 273 90 278 94 4 4 6 720 5 1592 l-3
1585 -807 -405z m625 -2672 c-5 -4 -282 -96 -618 -204 -335 -109 -615 -199
-622 -202 -11 -4 -13 234 -11 1283 l3 1289 625 315 625 315 3 -1394 c1 -767
-1 -1398 -5 -1402z"/>
<path d="M6880 5223 c-43 -28 -81 -66 -106 -105 -34 -53 -34 -144 1 -196 38
-57 47 -67 92 -95 63 -40 145 -38 212 3 27 17 56 42 65 55 l16 25 623 2 622 3
3 88 3 87 -610 0 c-476 0 -612 3 -620 13 -93 115 -128 137 -213 136 -41 0 -72
-6 -88 -16z m150 -98 c16 -9 36 -29 45 -45 43 -84 -13 -180 -105 -180 -92 0
-148 96 -105 180 29 55 105 76 165 45z"/>
<path d="M1700 5173 c-43 -28 -81 -66 -106 -105 -34 -53 -34 -143 0 -196 29
-46 72 -89 97 -97 10 -4 21 -16 24 -28 3 -12 4 -274 3 -582 l-3 -560 -695
-352 c-382 -194 -698 -353 -703 -353 -4 0 -6 266 -5 591 l3 591 110 60 c61 33
304 166 540 295 237 129 433 238 438 242 8 8 -52 151 -64 151 -3 0 -274 -146
-600 -324 l-594 -324 -3 -1646 c-1 -1046 -6 -1646 -12 -1646 -16 0 -81 -62
-106 -102 -34 -54 -34 -144 1 -196 38 -57 47 -67 92 -95 95 -60 227 -22 292
84 26 41 31 60 31 109 0 70 -24 116 -89 172 l-41 35 2 932 3 932 702 355 703
355 0 -1671 0 -1670 2053 0 2053 0 30 -39 c97 -130 277 -121 363 20 41 65 44
150 7 207 -53 83 -116 122 -196 122 -72 0 -118 -25 -176 -95 l-38 -45 -1948 0
-1948 0 0 2244 c0 1601 3 2247 11 2252 6 3 26 30 45 60 29 45 34 62 34 114 0
80 -39 143 -122 196 -46 30 -148 33 -188 7z m150 -98 c16 -9 36 -29 45 -45 43
-84 -13 -180 -105 -180 -92 0 -148 96 -105 180 29 55 105 76 165 45z m-1570
-4280 c16 -9 36 -29 45 -45 43 -84 -13 -180 -105 -180 -92 0 -148 96 -105 180
29 55 105 76 165 45z m5810 -470 c16 -9 36 -29 45 -45 43 -84 -13 -180 -105
-180 -92 0 -148 96 -105 180 29 55 105 76 165 45z"/>
<path d="M13137 4908 c-16 -12 -17 -156 -17 -2328 0 -2162 1 -2316 17 -2328
13 -9 101 -12 358 -12 319 0 343 1 358 18 14 15 17 41 17 146 l0 128 56 -51
c317 -290 760 -408 1196 -320 424 85 807 404 1047 869 190 370 255 880 171
1347 -80 447 -345 888 -689 1147 -375 282 -874 350 -1311 179 -102 -40 -258
-128 -333 -188 -37 -30 -69 -55 -72 -55 -3 0 -5 321 -5 714 l0 715 -22 15
c-19 14 -73 16 -388 16 -277 0 -370 -3 -383 -12z m1673 -1938 c163 -20 298
-83 416 -193 169 -158 259 -322 310 -562 30 -142 26 -394 -8 -541 -50 -212
-130 -357 -277 -504 -149 -148 -312 -213 -531 -213 -252 1 -417 82 -598 293
-79 93 -160 254 -198 395 -25 93 -27 114 -28 310 -1 186 2 220 22 298 59 236
172 424 330 550 143 115 256 158 462 176 9 0 54 -4 100 -9z"/>
<path d="M10101 3666 c-9 -10 -11 -301 -9 -1162 4 -1137 4 -1150 26 -1260 98
-496 321 -830 667 -999 175 -86 370 -123 575 -111 255 16 434 87 643 255 l87
70 0 -93 c0 -77 3 -96 18 -109 17 -15 57 -17 365 -17 301 0 348 2 361 16 14
14 16 183 16 1708 0 1303 -3 1695 -12 1704 -15 15 -754 17 -778 2 -13 -8 -16
-136 -21 -1017 -4 -726 -9 -1029 -18 -1083 -31 -193 -102 -375 -179 -461 -131
-147 -378 -196 -587 -118 -78 29 -145 86 -203 172 -58 87 -95 188 -125 342
-20 107 -21 140 -27 1133 -4 894 -7 1024 -20 1032 -9 6 -172 10 -391 10 -311
0 -379 -2 -388 -14z"/>
<path d="M7740 3605 c-19 -12 -51 -39 -69 -59 l-35 -36 -598 0 -598 0 0 -90
c0 -86 1 -90 23 -91 12 0 277 0 589 1 627 2 570 7 623 -61 66 -84 183 -105
274 -48 72 44 111 111 111 190 0 79 -39 142 -122 195 -52 33 -148 33 -198 -1z
m160 -90 c16 -9 36 -29 45 -45 43 -84 -13 -180 -105 -180 -92 0 -148 96 -105
180 29 55 105 76 165 45z"/>
<path d="M8240 2220 c0 -1019 -3 -1291 -12 -1299 -115 -92 -138 -128 -138
-211 0 -47 5 -68 25 -98 38 -57 47 -67 92 -95 95 -60 227 -22 292 84 26 41 31
60 31 109 0 69 -23 114 -84 168 l-36 31 0 1301 0 1300 -85 0 -85 0 0 -1290z
m130 -1405 c16 -9 36 -29 45 -45 43 -84 -13 -180 -105 -180 -92 0 -148 96
-105 180 29 55 105 76 165 45z"/>
<path d="M6440 3083 c-43 -28 -81 -66 -106 -105 -34 -53 -34 -144 1 -196 35
-53 47 -66 78 -86 l27 -18 0 -1274 0 -1274 90 0 90 0 0 1274 0 1274 34 22 c19
11 49 43 65 71 26 41 31 60 31 110 0 79 -39 142 -122 195 -46 30 -148 33 -188
7z m150 -98 c16 -9 36 -29 45 -45 43 -84 -13 -180 -105 -180 -92 0 -148 96
-105 180 29 55 105 76 165 45z"/>
<path d="M1248 415 c-20 -13 -53 -45 -74 -70 l-38 -45 -498 0 -498 0 0 -85 0
-85 503 0 503 0 30 -39 c97 -130 277 -121 363 20 26 41 31 60 31 110 0 79 -39
142 -122 195 -53 34 -147 33 -200 -1z m162 -90 c16 -9 36 -29 45 -45 43 -84
-13 -180 -105 -180 -92 0 -148 96 -105 180 29 55 105 76 165 45z"/>
<path d="M9188 415 c-20 -13 -53 -45 -74 -70 l-38 -45 -418 0 -418 0 0 -85 0
-85 423 0 423 0 30 -39 c97 -130 277 -121 363 20 26 41 31 60 31 110 0 79 -39
142 -122 195 -53 34 -147 33 -200 -1z m162 -90 c16 -9 36 -29 45 -45 43 -84
-13 -180 -105 -180 -92 0 -148 96 -105 180 29 55 105 76 165 45z"/>
</g>
</svg>
